<svg width="34" height="39" viewBox="0 0 34 39" fill="none" xmlns="http://www.w3.org/2000/svg">
<path d="M29.9691 1.44221C29.9691 1.05971 29.8172 0.692881 29.5467 0.422414C29.2763 0.151947 28.9094 0 28.5269 0H6.05008C5.66758 0 5.30075 0.151947 5.03028 0.422414C4.75981 0.692881 4.60786 1.05971 4.60786 1.44221V35.4351H0V38.3195H34.0001V35.4351H29.9691V1.44221ZM7.49229 2.88442H27.0847V35.4351H7.49229V2.88442Z" fill="#343434"/>
<path d="M13.0524 6.5332H10.168V11.6242H13.0524V6.5332Z" fill="#D50032"/>
<path d="M18.8209 6.5332H15.9365V11.6242H18.8209V6.5332Z" fill="#D50032"/>
<path d="M24.5827 6.5332H21.6982V11.6242H24.5827V6.5332Z" fill="#D50032"/>
<path d="M13.0524 16.6143H10.168V21.7053H13.0524V16.6143Z" fill="#D50032"/>
<path d="M18.8209 16.6143H15.9365V21.7053H18.8209V16.6143Z" fill="#D50032"/>
<path d="M24.5827 16.6143H21.6982V21.7053H24.5827V16.6143Z" fill="#D50032"/>
<path d="M13.0524 26.6954H10.168V31.7864H13.0524V26.6954Z" fill="#D50032"/>
<path d="M18.8209 26.6954H15.9365V31.7864H18.8209V26.6954Z" fill="#D50032"/>
<path d="M24.5827 26.6954H21.6982V31.7864H24.5827V26.6954Z" fill="#D50032"/>
</svg>
