<svg width="63" height="34" viewBox="0 0 63 34" fill="none" xmlns="http://www.w3.org/2000/svg">
<path d="M11.3886 0.750002L11.3895 0.749998L41.4705 0.75H41.471C41.8154 0.750707 42.1454 0.888145 42.389 1.13203C42.6325 1.37589 42.7698 1.70634 42.7712 2.05118L42.7712 2.05217L42.7712 7.30854H57.0682H57.0697C57.3285 7.31011 57.5809 7.38894 57.7948 7.53489C58.0086 7.68078 58.1742 7.88711 58.2706 8.12751L11.3886 0.750002ZM11.3886 0.750002C11.0445 0.751349 10.7152 0.889074 10.4722 1.1329C10.2292 1.37669 10.0923 1.70679 10.0909 2.0512L10.0909 2.05314C10.0923 2.39756 10.2292 2.72765 10.4722 2.97145C10.7152 3.21527 11.0445 3.353 11.3886 3.35435H11.3895H40.1637V26.9182M11.3886 0.750002L40.4137 26.9182H40.1637M62.3063 18.4191C62.3066 18.2513 62.2747 18.0851 62.2123 17.9295L62.2122 17.9292L58.2707 8.12778L62.0563 18.4186M62.3063 18.4191L62.0563 18.4186M62.3063 18.4191V18.4186H62.0563M62.3063 18.4191V28.2286V28.2296C62.3049 28.574 62.168 28.904 61.925 29.1478C61.682 29.3916 61.3527 29.5294 61.0087 29.5307L61.0077 29.5307L56.4061 29.5307M62.0563 18.4186V28.2286C62.0552 28.5073 61.9444 28.7743 61.7479 28.9713C61.5515 29.1684 61.2855 29.2796 61.0077 29.2807H56.2169M56.4061 29.5307C56.4247 29.4691 56.4422 29.4069 56.4587 29.3444L56.2169 29.2807M56.4061 29.5307H56.2169V29.2807M56.4061 29.5307C55.7312 31.7712 53.6766 33.43 51.2391 33.43C48.8017 33.43 46.7428 31.7713 46.066 29.5307M56.2169 29.2807C55.6295 31.5119 53.6234 33.18 51.2391 33.18C48.8548 33.18 46.8443 31.5119 46.2551 29.2807M46.2551 29.2807V29.5307H46.066M46.2551 29.2807H41.4705H27.051M46.2551 29.2807L46.0134 29.3446C46.0299 29.4071 46.0474 29.4691 46.066 29.5307M46.066 29.5307H41.4705H27.24M27.051 29.2807L27.2927 29.3446C27.2762 29.4071 27.2586 29.4691 27.24 29.5307M27.051 29.2807C26.4617 31.5119 24.4512 33.18 22.0669 33.18C19.6827 33.18 17.6722 31.5119 17.0829 29.2807M27.051 29.2807V29.5307H27.24M27.24 29.5307C26.5632 31.7713 24.5043 33.43 22.0669 33.43C19.6296 33.43 17.5707 31.7713 16.8939 29.5307M17.0829 29.2807V29.5307H16.8939M17.0829 29.2807H11.3895L12.4464 26.9182H12.6964M17.0829 29.2807L16.8412 29.3446C16.8577 29.4071 16.8753 29.4691 16.8939 29.5307M16.8939 29.5307H11.3895H11.3885C11.0445 29.5294 10.7152 29.3916 10.4722 29.1478C10.2293 28.904 10.0923 28.574 10.0909 28.2296L10.0909 28.2286L10.0909 22.5906M10.0909 22.5906C10.0909 22.5908 10.0909 22.591 10.0909 22.5912L10.3409 22.5902H10.0909V22.5906ZM10.0909 22.5906C10.0903 22.4194 10.1233 22.2497 10.188 22.0911C10.2528 21.9325 10.3481 21.7881 10.4686 21.6663C10.589 21.5445 10.7323 21.4476 10.8901 21.3813C11.048 21.3149 11.2174 21.2804 11.3886 21.2797C11.5606 21.2791 11.7311 21.3126 11.8901 21.3783C12.0492 21.444 12.1936 21.5407 12.3151 21.6626C12.4367 21.7846 12.5329 21.9294 12.5983 22.0888C12.6637 22.248 12.697 22.4185 12.6964 22.5906M12.6964 22.5906C12.6964 22.5908 12.6964 22.591 12.6964 22.5912L12.4464 22.5902H12.6964V22.5906ZM12.6964 22.5906V26.9182M12.6964 26.9182V27.1682H16.9616M12.6964 26.9182H16.7497M16.7497 26.9182C16.7365 26.989 16.7247 27.0603 16.7142 27.1321L16.9616 27.1682M16.7497 26.9182H16.9616V27.1682M16.7497 26.9182C17.2213 24.3875 19.4231 22.4433 22.0669 22.4433C24.7108 22.4433 26.9126 24.3875 27.3842 26.9182M16.9616 27.1682C17.3286 24.6514 19.4786 22.6933 22.0669 22.6933C24.6553 22.6933 26.8053 24.6514 27.1723 27.1682M27.1723 27.1682V26.9182H27.3842M27.1723 27.1682H40.1637V26.9182M27.1723 27.1682L27.4197 27.1321C27.4092 27.0603 27.3974 26.989 27.3842 26.9182M27.3842 26.9182H40.1637M6.80343 7.43233L6.80441 7.43232L22.6874 7.43233H22.6879V7.68233C22.8268 7.68178 22.9645 7.70883 23.093 7.76193C23.2214 7.81503 23.3382 7.89312 23.4364 7.9917C23.5347 8.09028 23.6125 8.2074 23.6654 8.3363C23.7183 8.4652 23.7453 8.60334 23.7447 8.74275C23.7442 8.88147 23.7164 9.01872 23.663 9.14667C23.6096 9.27462 23.5316 9.39076 23.4335 9.48846C23.3354 9.58616 23.219 9.66351 23.0911 9.7161L6.80343 7.43233ZM6.80343 7.43233C6.63223 7.433 6.46287 7.4675 6.30501 7.53383C6.14715 7.60017 6.00391 7.69703 5.88345 7.81884C5.763 7.94066 5.66768 8.08504 5.6029 8.24372C5.53811 8.4024 5.50513 8.5723 5.5058 8.74373C5.50714 9.08814 5.64408 9.41823 5.88705 9.66202C6.13005 9.90584 6.45942 10.0436 6.80343 10.0449H6.80441H22.6874L6.80343 7.43233ZM0.750002 15.4735L0.749996 15.472C0.750334 15.3004 0.784399 15.1305 0.850268 14.972C0.916137 14.8136 1.01253 14.6696 1.13396 14.5485C1.2554 14.4274 1.3995 14.3314 1.55804 14.2661C1.71642 14.2009 1.88608 14.1677 2.05732 14.1683M0.750002 15.4735L2.05783 14.1683C2.05766 14.1683 2.05749 14.1683 2.05732 14.1683M0.750002 15.4735C0.750667 15.6449 0.784977 15.8146 0.850994 15.9727M0.750002 15.4735L0.850994 15.9727M2.05732 14.1683H22.6874M2.05732 14.1683H22.6874M22.6874 14.1683H22.6879V14.4183L22.6874 14.1683ZM0.850994 15.9727C0.917011 16.1309 1.01345 16.2745 1.13486 16.3954M0.850994 15.9727L1.13486 16.3954M1.13486 16.3954C1.25626 16.5163 1.40025 16.612 1.55863 16.6771M1.13486 16.3954L1.55863 16.6771M1.55863 16.6771C1.71684 16.7421 1.8863 16.7753 2.05732 16.7747M1.55863 16.6771L2.05732 16.7747M2.05732 16.7747H22.6874H22.6879V16.5247L2.05732 16.7747ZM21.9952 25.0558C22.0088 25.0555 22.0192 25.0556 22.0331 25.0557C22.0422 25.0558 22.0529 25.0559 22.0669 25.0559C23.6135 25.0559 24.8703 26.3157 24.8703 27.9315C24.8703 29.5484 23.6124 30.8174 22.0669 30.8174C20.5215 30.8174 19.2636 29.5484 19.2636 27.9315C19.2636 26.341 20.4823 25.0944 21.9952 25.0558ZM21.9952 25.0558L21.9888 24.8059L21.9952 25.0558C21.9952 25.0558 21.9952 25.0558 21.9952 25.0558ZM54.0445 27.9315C54.0445 26.3159 52.7859 25.0559 51.2391 25.0559L54.0445 27.9315ZM54.0445 27.9315C54.0445 29.5481 52.7848 30.8174 51.2391 30.8174C49.6936 30.8174 48.4358 29.5484 48.4358 27.9315C48.4358 26.341 49.6545 25.0944 51.1673 25.0558L54.0445 27.9315ZM42.7712 9.92114H56.1837L59.0751 17.1164H42.7712V9.92114ZM42.7712 19.729H59.7008V26.9182H56.5482C56.0781 24.3878 53.8833 22.4433 51.2391 22.4433C48.5951 22.4433 46.3954 24.3876 45.9239 26.9182H42.7712V19.729Z" fill="white" stroke="white" stroke-width="0.5"/>
</svg>
