<svg width="35" height="43" viewBox="0 0 35 43" fill="none" xmlns="http://www.w3.org/2000/svg">
<path d="M26.6154 0.754333H23.1449H14.1382H10.6677C8.76725 0.754333 7.19727 2.32431 7.19727 4.2248V11.7442C6.4536 11.1657 5.54466 10.7526 4.47047 10.7526C3.06576 10.7526 1.8263 11.9094 1.8263 13.3141L1 26.4524V32.8975C1 38.1032 5.21414 42.4 10.5025 42.4H14.2208C16.6998 42.4 19.096 41.4084 20.8313 39.6732L24.5496 36.0375H26.6154C28.5159 36.0375 30.0859 34.4675 30.0859 32.567V31.4102C30.1685 31.4102 30.2511 31.4102 30.3337 31.4102H31.2427C32.9779 31.4102 34.3 30.0055 34.3 28.3528V27.5265C34.3 26.6176 33.8868 25.7913 33.3084 25.2955C33.8868 24.7171 34.3 23.8908 34.3 23.0645V22.2382C34.3 21.3293 33.8868 20.503 33.3084 20.0072C33.8868 19.4288 34.3 18.6025 34.3 17.7762V16.9499C34.3 16.0409 33.8868 15.2146 33.3084 14.7189C33.8868 14.1404 34.3 13.3141 34.3 12.4878V11.6615C34.3 9.92629 32.8953 8.60421 31.2427 8.60421H30.3337C30.2511 8.60421 30.1685 8.60421 30.0859 8.60421V4.2248C30.0859 2.32431 28.5159 0.754333 26.6154 0.754333ZM14.9645 2.40694H22.3186V3.23324C22.3186 3.89428 21.8228 4.39007 21.1618 4.39007H16.1213C15.4603 4.39007 14.9645 3.89428 14.9645 3.23324V2.40694ZM19.6744 38.5164C18.1871 39.9211 16.2866 40.7474 14.2208 40.7474H10.5025C6.20571 40.7474 2.65261 37.2769 2.65261 32.8975V26.535L3.47891 13.3968C3.47891 12.901 3.89206 12.4052 4.47047 12.4052C5.95782 12.4052 7.19727 13.6447 7.19727 15.132V26.535V32.6496C7.19727 34.5501 8.76725 36.1201 10.6677 36.1201H22.236L19.6744 38.5164ZM28.4333 32.567C28.4333 33.5586 27.6069 34.3849 26.6154 34.3849H24.2191H10.5851C9.59355 34.3849 8.76725 33.5586 8.76725 32.567V26.4524V15.132V4.2248C8.76725 3.23324 9.59355 2.40694 10.5851 2.40694H13.2293V3.23324C13.2293 4.80322 14.4687 6.04267 16.0387 6.04267H21.0792C22.6491 6.04267 23.8886 4.80322 23.8886 3.23324V2.40694H26.5328C27.5243 2.40694 28.3506 3.23324 28.3506 4.2248V10.0916V13.3141V15.4625V18.6851V20.8335V24.0561V26.2045V29.427V32.567H28.4333ZM32.6474 27.4439V28.2702C32.6474 29.0965 31.9864 29.6749 31.2427 29.6749H30.3337C30.1685 29.6749 30.0859 29.5923 30.0859 29.427V26.2045C30.0859 26.0392 30.1685 25.9566 30.3337 25.9566H31.2427C31.9864 26.0392 32.6474 26.7002 32.6474 27.4439ZM32.6474 22.0729V22.8992C32.6474 23.7255 31.9864 24.304 31.2427 24.304H30.3337C30.1685 24.304 30.0859 24.2213 30.0859 24.0561V20.8335C30.0859 20.6682 30.1685 20.5856 30.3337 20.5856H31.2427C31.9864 20.6682 32.6474 21.2466 32.6474 22.0729ZM32.6474 16.702V17.5283C32.6474 18.3546 31.9864 18.933 31.2427 18.933H30.3337C30.1685 18.933 30.0859 18.8504 30.0859 18.6851V15.4625C30.0859 15.2973 30.1685 15.2146 30.3337 15.2146H31.2427C31.9864 15.2146 32.6474 15.8757 32.6474 16.702ZM30.3337 9.84366H31.2427C32.069 9.84366 32.6474 10.5047 32.6474 11.2484V12.0747C32.6474 12.901 31.9864 13.4794 31.2427 13.4794H30.3337C30.1685 13.4794 30.0859 13.3968 30.0859 13.2315V10.0089C30.0859 10.0089 30.1685 9.84366 30.3337 9.84366Z" fill="#4F4F4F" stroke="#4F4F4F" stroke-width="0.7"/>
<path d="M20.625 18.0833L17.7917 20.9167L16.375 19.5M18.5 25.875C14.9792 25.875 12.125 23.0208 12.125 19.5C12.125 15.9792 14.9792 13.125 18.5 13.125C22.0208 13.125 24.875 15.9792 24.875 19.5C24.875 23.0208 22.0208 25.875 18.5 25.875Z" stroke="#D50032" stroke-width="2" stroke-linecap="round" stroke-linejoin="round"/>
</svg>
